<svg width="17" height="18" viewBox="0 0 17 18" fill="none" xmlns="http://www.w3.org/2000/svg">
<rect x="0.113281" y="0.980713" width="16" height="16.9063" rx="8" fill="#FFCD00"/>
<path d="M12.0296 6.90992C12.0992 6.77723 12.1391 6.62636 12.1391 6.46605C12.1391 5.93722 11.7106 5.50867 11.1818 5.50867C10.9842 5.50867 10.8009 5.56852 10.6485 5.67094C10.636 5.66328 10.6232 5.65597 10.6105 5.64849C10.1706 4.71159 9.2189 4.06253 8.11528 4.06253C7.01166 4.06253 6.06016 4.71159 5.62003 5.64849C5.60043 5.66007 5.58066 5.67147 5.56125 5.6834C5.40557 5.57368 5.21605 5.50867 5.01086 5.50867C4.48221 5.50867 4.05348 5.93722 4.05348 6.46605C4.05348 6.63794 4.09943 6.79896 4.17887 6.93842C3.56259 7.7599 3.19727 8.7807 3.19727 9.88663C3.19727 12.6028 5.39898 14.8045 8.1151 14.8045C10.8312 14.8045 13.0329 12.6028 13.0329 9.88663C13.0329 8.76769 12.6589 7.73621 12.0294 6.90975" fill="#FFCD00"/>
<path d="M8.11299 14.9805C5.30443 14.9805 3.01953 12.6956 3.01953 9.88708C3.01953 8.81249 3.34834 7.78938 3.97157 6.92142C3.90852 6.77821 3.87557 6.62289 3.87557 6.46632C3.87557 5.84149 4.38391 5.33332 5.00875 5.33332C5.18741 5.33332 5.36071 5.37482 5.51817 5.45461C6.02224 4.4983 7.02647 3.88718 8.11299 3.88718C9.19951 3.88718 10.1931 4.49171 10.6998 5.43947C10.8491 5.36965 11.0122 5.33314 11.1795 5.33314C11.8043 5.33314 12.3127 5.84149 12.3127 6.46615C12.3127 6.61042 12.2845 6.75452 12.2307 6.88846C12.8696 7.76356 13.2066 8.79789 13.2066 9.8869C13.2066 12.6955 10.9217 14.9804 8.11317 14.9804M5.00875 5.68457C4.57771 5.68457 4.22717 6.03528 4.22717 6.46615C4.22717 6.6008 4.26262 6.73403 4.32959 6.85177C4.36414 6.91269 4.35951 6.98821 4.31748 7.04414C3.69834 7.86936 3.37114 8.85239 3.37114 9.8869C3.37114 12.5017 5.4984 14.6289 8.11317 14.6289C10.7279 14.6289 12.8552 12.5017 12.8552 9.8869C12.8552 8.8401 12.5205 7.84745 11.8877 7.01635C11.8463 6.96203 11.8401 6.88864 11.8718 6.82826C11.9311 6.71516 11.9612 6.59332 11.9612 6.46597C11.9612 6.03492 11.6107 5.68439 11.1797 5.68439C11.0238 5.68439 10.8733 5.73016 10.7443 5.81691C10.6879 5.85484 10.6143 5.8568 10.5559 5.82172L10.5195 5.80016C10.4889 5.78217 10.4643 5.75546 10.4494 5.72322C10.0256 4.82105 9.10867 4.23825 8.11317 4.23825C7.11767 4.23825 6.20072 4.82105 5.77698 5.72322C5.76201 5.75528 5.73761 5.782 5.70698 5.79999L5.69629 5.80622C5.68097 5.8153 5.66565 5.82421 5.65051 5.83347C5.59084 5.86981 5.51514 5.86731 5.45797 5.82688C5.32545 5.73355 5.17031 5.68421 5.00893 5.68421" fill="#502C1E"/>
<path d="M5.57009 6.61084C5.50739 6.89974 5.2224 7.08303 4.93367 7.02051C4.64477 6.95781 4.46131 6.67282 4.524 6.38409C4.5867 6.09518 4.87169 5.9119 5.16042 5.97442C5.44933 6.03712 5.63261 6.32211 5.57009 6.61084Z" fill="#E7A223"/>
<path d="M11.6775 6.61084C11.6148 6.89974 11.3298 7.08303 11.0409 7.02051C10.752 6.95781 10.5687 6.67282 10.6314 6.38409C10.6941 6.09518 10.9791 5.9119 11.2678 5.97442C11.5568 6.03712 11.74 6.32211 11.6775 6.61084Z" fill="#E7A223"/>
<path d="M8.65917 8.02268C8.66041 8.00505 8.66113 7.98706 8.66077 7.96871C8.65685 7.76085 8.54802 7.59449 8.41764 7.59698C8.3496 7.59823 8.28939 7.64561 8.24771 7.71971C8.20318 7.64721 8.1412 7.60233 8.07334 7.60357C7.94295 7.60607 7.84036 7.77635 7.84428 7.98421C7.84428 7.98564 7.84428 7.98706 7.84445 7.98848C6.17317 8.12564 4.85938 9.52457 4.85938 11.2313C4.85938 13.0289 6.31656 14.486 8.11413 14.486C9.91169 14.486 11.3689 13.0289 11.3689 11.2313C11.3689 9.61951 10.197 8.2822 8.65899 8.02286" fill="#F4EFDB"/>
<path d="M6.0332 10.5476C6.0332 10.8055 6.24231 11.0146 6.50023 11.0146C6.75814 11.0146 6.96725 10.8055 6.96725 10.5476C6.96725 10.2897 6.75814 10.0806 6.50023 10.0806C6.24231 10.0806 6.0332 10.2897 6.0332 10.5476Z" fill="#502C1E"/>
<path d="M6.40039 10.8034C6.40039 10.8713 6.45543 10.9261 6.52311 10.9261C6.5908 10.9261 6.64584 10.8711 6.64584 10.8034C6.64584 10.7357 6.59098 10.6807 6.52311 10.6807C6.45525 10.6807 6.40039 10.7357 6.40039 10.8034Z" fill="white"/>
<path d="M9.21484 10.5674C9.21484 10.8253 9.42395 11.0344 9.68187 11.0344C9.93978 11.0344 10.1489 10.8253 10.1489 10.5674C10.1489 10.3095 9.93978 10.1004 9.68187 10.1004C9.42395 10.1004 9.21484 10.3095 9.21484 10.5674Z" fill="#502C1E"/>
<path d="M9.57617 10.8234C9.57617 10.8913 9.63121 10.9462 9.6989 10.9462C9.76658 10.9462 9.82162 10.8911 9.82162 10.8234C9.82162 10.7558 9.76676 10.7007 9.6989 10.7007C9.63103 10.7007 9.57617 10.7558 9.57617 10.8234Z" fill="white"/>
<path d="M8.91197 11.6671C8.91197 11.8892 8.55556 12.0693 8.11614 12.0693C7.67673 12.0693 7.32031 11.8892 7.32031 11.6671C7.32031 11.445 7.67673 11.2649 8.11614 11.2649C8.55556 11.2649 8.91197 11.445 8.91197 11.6671Z" fill="#502C1E"/>
<path d="M5.2793 9.68364C5.30922 9.4658 5.51103 9.28465 5.731 9.27859L5.2793 9.68364Z" fill="#502C1E"/>
<path d="M5.41131 9.72009C5.43874 9.55693 5.56556 9.42138 5.73655 9.41141C5.90434 9.40161 5.90558 9.13924 5.73655 9.14904C5.45708 9.16543 5.20594 9.36866 5.15838 9.65026C5.13059 9.81538 5.38334 9.88645 5.41131 9.72009Z" fill="#502C1E"/>
<path d="M10.25 9.01236C10.4593 8.94468 10.7101 9.04798 10.8109 9.2432L10.25 9.01236Z" fill="#502C1E"/>
<path d="M10.2851 9.13881C10.4477 9.09268 10.6149 9.16232 10.698 9.30945C10.7808 9.45657 11.0075 9.32441 10.9245 9.17711C10.7851 8.92952 10.4887 8.80823 10.2154 8.88589C10.0533 8.93202 10.1223 9.18512 10.2853 9.13881" fill="#502C1E"/>
</svg>
