<svg width="280" height="344" viewBox="0 0 280 344" fill="none" xmlns="http://www.w3.org/2000/svg">
<path d="M0 50.8985C0 43.4426 4.15366 36.5673 10.8344 33.2569C101.391 -11.616 161.561 -10.672 267.888 33.6214C275.251 36.6887 280 43.9299 280 51.9061V324C280 335.046 271.046 344 260 344H20C8.95431 344 0 335.046 0 324V50.8985Z" fill="white"/>
<path d="M1 50.8985C1 43.8122 4.94752 37.29 11.2784 34.1529C56.4727 11.7582 93.9975 0.839086 133.443 1.00179C172.906 1.16457 214.389 12.4183 267.503 34.5445C274.487 37.4539 279 44.3267 279 51.9061V324C279 334.493 270.493 343 260 343H20C9.5066 343 1 334.493 1 324V50.8985Z" stroke="#454545" stroke-opacity="0.2" stroke-width="2"/>
</svg>
