<svg width="280" height="345" viewBox="0 0 280 345" fill="none" xmlns="http://www.w3.org/2000/svg">
<path d="M0 51.3927C0 43.9367 4.15366 37.0614 10.8344 33.751C101.391 -11.1218 161.561 -10.1779 267.888 34.1156C275.251 37.1828 280 44.424 280 52.4002V324.494C280 335.54 271.046 344.494 260 344.494H20C8.95431 344.494 0 335.54 0 324.494V51.3927Z" fill="white"/>
<path d="M1 51.3927C1 44.3063 4.94752 37.7841 11.2784 34.647C56.4727 12.2523 93.9975 1.33323 133.443 1.49593C172.906 1.65871 214.389 12.9125 267.503 35.0387C274.487 37.948 279 44.8209 279 52.4002V324.494C279 334.988 270.493 343.494 260 343.494H20C9.5066 343.494 1 334.988 1 324.494V51.3927Z" stroke="#454545" stroke-opacity="0.2" stroke-width="2"/>
</svg>
